<?xml version="1.0" encoding="UTF-8" standalone="no"?>
<!-- Created with Inkscape (http://www.inkscape.org/) -->

<svg
   xmlns:dc="http://purl.org/dc/elements/1.1/"
   xmlns:cc="http://creativecommons.org/ns#"
   xmlns:rdf="http://www.w3.org/1999/02/22-rdf-syntax-ns#"
   xmlns:svg="http://www.w3.org/2000/svg"
   xmlns="http://www.w3.org/2000/svg"
   xmlns:sodipodi="http://sodipodi.sourceforge.net/DTD/sodipodi-0.dtd"
   xmlns:inkscape="http://www.inkscape.org/namespaces/inkscape"
   width="130"
   height="130"
   id="svg3399"
   version="1.1"
   inkscape:version="0.91 r13725"
   sodipodi:docname="PDSG_logo.svg"
   inkscape:export-filename="/Users/benlindsay/Google_Drive/PDSG_logo_tight_square_new.png"
   inkscape:export-xdpi="373.80688"
   inkscape:export-ydpi="373.80688">
  <defs
     id="defs3401">
    <clipPath
       id="clipPath2999"
       clipPathUnits="userSpaceOnUse">
      <path
         inkscape:connector-curvature="0"
         id="path3001"
         d="m 157.5,436.5 313.975,0 0,135 -313.975,0 0,-135 z" />
    </clipPath>
    <clipPath
       id="clipPath3007"
       clipPathUnits="userSpaceOnUse">
      <path
         inkscape:connector-curvature="0"
         id="path3009"
         d="m 182.481,460.517 252.2725,0 0,81.2992 -252.2725,0 0,-81.2992 z" />
    </clipPath>
  </defs>
  <sodipodi:namedview
     id="base"
     pagecolor="#ffffff"
     bordercolor="#666666"
     borderopacity="1.0"
     inkscape:pageopacity="0.0"
     inkscape:pageshadow="2"
     inkscape:zoom="1.4142136"
     inkscape:cx="-26.158956"
     inkscape:cy="68.793676"
     inkscape:document-units="px"
     inkscape:current-layer="layer1"
     showgrid="false"
     fit-margin-top="0"
     fit-margin-left="0"
     fit-margin-right="-0.5"
     fit-margin-bottom="0"
     inkscape:window-width="1280"
     inkscape:window-height="751"
     inkscape:window-x="0"
     inkscape:window-y="1"
     inkscape:window-maximized="1" />
  <metadata
     id="metadata3404">
    <rdf:RDF>
      <cc:Work
         rdf:about="">
        <dc:format>image/svg+xml</dc:format>
        <dc:type
           rdf:resource="http://purl.org/dc/dcmitype/StillImage" />
        <dc:title></dc:title>
      </cc:Work>
    </rdf:RDF>
  </metadata>
  <g
     inkscape:label="Layer 1"
     inkscape:groupmode="layer"
     id="layer1"
     transform="translate(-153.8112,-502.7786)">
    <g
       id="g3003"
       transform="matrix(1.5394809,0,0,-1.5394809,-116.0878,1341.5442)">
      <g
         id="g3005"
         clip-path="url(#clipPath3007)">
        <path
           sodipodi:nodetypes="cccccc"
           id="path4204"
           style="fill:#ffffff;fill-opacity:1;stroke:#011f5b;stroke-width:0.94999999;stroke-linecap:butt;stroke-linejoin:miter;stroke-miterlimit:3.86360002;stroke-dasharray:none;stroke-opacity:1"
           d="m 183.0479,541.2382 68.9918,0 0,-34.4909 c -0.4666,-28.1135 -30.53602,-42.8905 -34.49922,-42.7551 -4.1215,0.141 -34.58588,14.6007 -34.49958,42.9013 0.001,0.5093 0.007,34.3447 0.007,34.3447 z"
           inkscape:connector-curvature="0" />
        <path
           inkscape:connector-curvature="0"
           d="m 183.0636,520.283 c 0.1002,-0.0993 0.004,20.9552 0.004,20.9552 l 68.9423,0 c 0,0 0,-11.2919 0,-20.9557"
           style="fill:#990000;fill-opacity:1;fill-rule:nonzero;stroke:none"
           id="path3069" />
        <path
           inkscape:connector-curvature="0"
           d="m 183.0636,520.283 c 0.1002,-0.0993 0.004,20.9552 0.004,20.9552 l 68.9423,0 c 0,0 0,-11.2919 0,-20.9557 l -68.9465,5e-4 z"
           style="fill:none;stroke:#990000;stroke-width:0.47929999;stroke-linecap:butt;stroke-linejoin:miter;stroke-miterlimit:3.86360002;stroke-dasharray:none;stroke-opacity:1"
           id="path3071" />
        <path
           inkscape:connector-curvature="0"
           d="m 183.0636,520.1406 68.9423,0.009"
           style="fill:none;stroke:#011f5b;stroke-width:0.47929999;stroke-linecap:butt;stroke-linejoin:miter;stroke-miterlimit:3.86360002;stroke-dasharray:none;stroke-opacity:1"
           id="path3077" />
        <path
           inkscape:connector-curvature="0"
           d="m 234.7357,536.0308 1.8763,0 c 1.3753,0.314 1.8768,1.1114 3.2869,1.1114 1.015,0 1.4928,-0.6739 2.2382,-0.6739 0.6295,0 1.5972,0.7185 2.6575,0.7185 1.0846,0 1.6207,-0.6513 2.3319,-0.9542 0.6294,-0.2695 1.4566,-0.2551 2.3309,-0.2551 -0.0236,-0.6291 0,-1.0025 0,-1.5299 0,-0.539 0.7227,-0.3256 0.7227,-1.2019 0,-0.9207 -0.9333,-0.7408 -0.9333,-1.1114 l -0.0343,-3.4242 c 0.0469,-0.4268 0.9092,-0.4829 0.9092,-1.1337 0,-0.9659 -0.9603,-0.6313 -0.8976,-1.3926 0.0464,-0.5612 0,-1.7515 0,-1.7515 -1.8531,0 -13.7727,-0.1091 -14.3563,-0.0867 0.0354,1.2686 0.2325,1.193 0.2761,1.8044 0.0352,0.494 -1.072,0.7973 -1.072,1.6281 0,0.573 0.6638,0.539 0.7217,1.078 l 0,3.4132 c -0.0343,0.449 -1.0367,0.6736 -1.0024,1.3132 0.0418,0.7659 0.9329,0.668 0.9329,1.1796 0,0.2241 0.0232,1.0553 0.0116,1.2687"
           style="fill:#ffffff;fill-opacity:1;fill-rule:nonzero;stroke:none"
           id="path3079" />
        <path
           inkscape:connector-curvature="0"
           d="m 234.7357,536.0308 1.8763,0 c 1.3753,0.314 1.8768,1.1114 3.2869,1.1114 1.015,0 1.4928,-0.6739 2.2382,-0.6739 0.6295,0 1.5972,0.7185 2.6575,0.7185 1.0846,0 1.6207,-0.6513 2.3319,-0.9542 0.6294,-0.2695 1.4566,-0.2551 2.3309,-0.2551 -0.0236,-0.6291 0,-1.0025 0,-1.5299 0,-0.539 0.7227,-0.3256 0.7227,-1.2019 0,-0.9207 -0.9333,-0.7408 -0.9333,-1.1114 l -0.0343,-3.4242 c 0.0469,-0.4268 0.9092,-0.4829 0.9092,-1.1337 0,-0.9659 -0.9603,-0.6313 -0.8976,-1.3926 0.0464,-0.5612 0,-1.7515 0,-1.7515 -1.8531,0 -13.7727,-0.1091 -14.3563,-0.0867 0.0354,1.2686 0.2325,1.193 0.2761,1.8044 0.0352,0.494 -1.072,0.7973 -1.072,1.6281 0,0.573 0.6638,0.539 0.7217,1.078 l 0,3.4132 c -0.0343,0.449 -1.0367,0.6736 -1.0024,1.3132 0.0418,0.7659 0.9329,0.668 0.9329,1.1796 0,0.2241 0.0232,1.0553 0.0116,1.2687 z"
           style="fill:none;stroke:#011f5b;stroke-width:0.47929999;stroke-linecap:butt;stroke-linejoin:miter;stroke-miterlimit:3.86360002;stroke-dasharray:none;stroke-opacity:1"
           id="path3081" />
        <path
           inkscape:connector-curvature="0"
           d="m 236.2627,535.9742 c 0,0 0.0237,-7.6347 0,-9.4313 0,0 11.1198,-0.0223 11.6092,0.0227 0,2.0322 -0.0111,9.4652 -0.0111,9.4652"
           style="fill:none;stroke:#011f5b;stroke-width:0.47929999;stroke-linecap:butt;stroke-linejoin:miter;stroke-miterlimit:3.86360002;stroke-dasharray:none;stroke-opacity:1"
           id="path3083" />
        <path
           inkscape:connector-curvature="0"
           d="m 242.0792,536.446 0,-9.9254"
           style="fill:none;stroke:#011f5b;stroke-width:0.47929999;stroke-linecap:butt;stroke-linejoin:miter;stroke-miterlimit:3.86360002;stroke-dasharray:none;stroke-opacity:1"
           id="path3085" />
        <path
           inkscape:connector-curvature="0"
           d="m 242.2545,527.7443 c 0.4894,-0.0223 1.3879,-0.3526 2.2613,-0.6174 1.1301,-0.3424 2.3291,-0.1025 3.2164,-0.2806 0.2798,-0.0562 -5.4777,-0.1012 -5.4777,-0.1012 0.0228,1.112 0,0.9992 0,0.9992"
           style="fill:#011f5b;fill-opacity:1;fill-rule:nonzero;stroke:none"
           id="path3087" />
        <path
           inkscape:connector-curvature="0"
           d="m 242.2545,527.7443 c 0.4894,-0.0223 1.3879,-0.3526 2.2613,-0.6174 1.1301,-0.3424 2.3291,-0.1025 3.2164,-0.2806 0.2798,-0.0562 -5.4777,-0.1012 -5.4777,-0.1012 0.0228,1.112 0,0.9992 0,0.9992 z"
           style="fill:none;stroke:#011f5b;stroke-width:0.47929999;stroke-linecap:butt;stroke-linejoin:miter;stroke-miterlimit:3.86360002;stroke-dasharray:none;stroke-opacity:1"
           id="path3089" />
        <path
           inkscape:connector-curvature="0"
           d="m 241.4261,526.2734 c 0,0.2481 0.2898,0.4494 0.647,0.4494 0.3581,0 0.6471,-0.2013 0.6471,-0.4494 0,-0.2478 -0.289,-0.4486 -0.6471,-0.4486 -0.3572,0 -0.647,0.2008 -0.647,0.4486"
           style="fill:#011f5b;fill-opacity:1;fill-rule:nonzero;stroke:none"
           id="path3091" />
        <path
           inkscape:connector-curvature="0"
           d="m 241.4261,526.2734 c 0,0.2481 0.2898,0.4494 0.647,0.4494 0.3581,0 0.6471,-0.2013 0.6471,-0.4494 0,-0.2478 -0.289,-0.4486 -0.6471,-0.4486 -0.3572,0 -0.647,0.2008 -0.647,0.4486 z"
           style="fill:none;stroke:#011f5b;stroke-width:0.47929999;stroke-linecap:butt;stroke-linejoin:miter;stroke-miterlimit:3.86360002;stroke-dasharray:none;stroke-opacity:1"
           id="path3093" />
        <path
           inkscape:connector-curvature="0"
           d="m 241.7558,527.7443 c -0.4894,-0.0223 -1.3879,-0.3526 -2.2613,-0.6174 -1.1305,-0.3424 -2.3296,-0.1025 -3.2165,-0.2806 -0.2797,-0.0562 5.4778,-0.1012 5.4778,-0.1012 -0.0232,1.112 0,0.9992 0,0.9992"
           style="fill:#011f5b;fill-opacity:1;fill-rule:nonzero;stroke:none"
           id="path3095" />
        <path
           inkscape:connector-curvature="0"
           d="m 241.7558,527.7443 c -0.4894,-0.0223 -1.3879,-0.3526 -2.2613,-0.6174 -1.1305,-0.3424 -2.3296,-0.1025 -3.2165,-0.2806 -0.2797,-0.0562 5.4778,-0.1012 5.4778,-0.1012 -0.0232,1.112 0,0.9992 0,0.9992 z"
           style="fill:none;stroke:#011f5b;stroke-width:0.47929999;stroke-linecap:butt;stroke-linejoin:miter;stroke-miterlimit:3.86360002;stroke-dasharray:none;stroke-opacity:1"
           id="path3097" />
        <path
           inkscape:connector-curvature="0"
           d="m 203.5513,523.4336 c 0.1864,-0.7297 0.7342,-1.2126 1.6319,-1.2126 1.6667,0 3.2753,1.2353 4.2425,1.931 0.7579,0.5391 1.5386,1.1115 1.5386,2.2907 l -0.1397,-0.449 c 0,0 1.3059,1.302 4.5223,0.2694 0.8939,-0.287 4.7212,-2.4361 5.5488,-2.7845 0.7112,-0.3034 3.2035,-2.0911 7.0986,-1.4018 0,0 5.9468,0.8182 4.6182,6.9422 -0.9495,4.3771 -0.6549,4.6878 -0.2936,6.0915 -0.1396,0.0672 -3.6367,0.8531 -3.5434,-3.9972 -1.5159,-0.1572 -3.4508,-1.302 -2.1919,-4.3116 0.5131,0.764 1.2005,1.5721 2.1449,1.5721 0.5943,0 1.2205,-0.854 1.259,-1.4821 0.0933,-1.5271 -1.4454,-2.2006 -3.3566,-1.8861 -0.9694,0.1591 -1.8619,1.2329 -3.1979,2.1997 0.2334,0.1123 0.4463,0.8989 0.4463,1.2135 0,0.7746 -0.6643,1.1336 -1.1184,1.3925 0.0932,0.269 0.2788,0.6285 0.2788,0.8981 0,0.6173 -0.874,0.5723 -1.2111,0.808 0.1391,0.1912 0.1391,0.0784 0.1391,0.3595 0,0.8985 0.1401,1.3925 -1.6783,1.347 0.1517,0.8874 -0.0352,1.4598 -0.6527,1.7071 l -1.3521,0.1795 c -0.8391,0.1568 -0.002,0.4365 -0.777,1.1828 -0.6906,0.6667 -1.8281,0 -1.8281,0 0,0.6175 -0.4258,1.1078 -1.1717,1.1078 -0.3962,0 -0.8855,-0.0339 -1.1653,-0.18 l -0.5593,-0.449 c -0.6996,0 -0.8744,0.629 -1.6788,0.629 -0.8039,0 -1.1305,-0.629 -1.4454,-1.0331 -0.5479,0.2584 -0.6179,0.7185 -1.3521,0.7185 -0.431,0 -0.559,-0.4601 -0.746,-0.6735 -0.4777,-0.5279 -0.4439,-1.0747 -1.1898,-1.3443 l -0.2773,0.4881 c -0.009,0.0305 -0.0172,0.0616 -0.0247,0.0927 -1.0961,-0.5279 -3.5681,-6.1638 -3.5681,-7.3198 0,-1.1008 0.9571,-0.6184 0.9571,-1.7975 0,-0.6958 -1.0257,-1.2014 -1.0257,-1.7961 0,-0.7524 0.874,-1.1225 1.6315,-1.1225"
           style="fill:#ffffff;fill-opacity:1;fill-rule:nonzero;stroke:none"
           id="path3099" />
        <path
           inkscape:connector-curvature="0"
           d="m 203.5513,523.4336 c 0.1864,-0.7297 0.7342,-1.2126 1.6319,-1.2126 1.6667,0 3.2753,1.2353 4.2425,1.931 0.7579,0.5391 1.5386,1.1115 1.5386,2.2907 l -0.1397,-0.449 c 0,0 1.3059,1.302 4.5223,0.2694 0.8939,-0.287 4.7212,-2.4361 5.5488,-2.7845 0.7112,-0.3034 3.2035,-2.0911 7.0986,-1.4018 0,0 5.9468,0.8182 4.6182,6.9422 -0.9495,4.3771 -0.6549,4.6878 -0.2936,6.0915 -0.1396,0.0672 -3.6367,0.8531 -3.5434,-3.9972 -1.5159,-0.1572 -3.4508,-1.302 -2.1919,-4.3116 0.5131,0.764 1.2005,1.5721 2.1449,1.5721 0.5943,0 1.2205,-0.854 1.259,-1.4821 0.0933,-1.5271 -1.4454,-2.2006 -3.3566,-1.8861 -0.9694,0.1591 -1.8619,1.2329 -3.1979,2.1997 0.2334,0.1123 0.4463,0.8989 0.4463,1.2135 0,0.7746 -0.6643,1.1336 -1.1184,1.3925 0.0932,0.269 0.2788,0.6285 0.2788,0.8981 0,0.6173 -0.874,0.5723 -1.2111,0.808 0.1391,0.1912 0.1391,0.0784 0.1391,0.3595 0,0.8985 0.1401,1.3925 -1.6783,1.347 0.1517,0.8874 -0.0352,1.4598 -0.6527,1.7071 l -1.3521,0.1795 c -0.8391,0.1568 -0.002,0.4365 -0.777,1.1828 -0.6906,0.6667 -1.8281,0 -1.8281,0 0,0.6175 -0.4258,1.1078 -1.1717,1.1078 -0.3962,0 -0.8855,-0.0339 -1.1653,-0.18 l -0.5593,-0.449 c -0.6996,0 -0.8744,0.629 -1.6788,0.629 -0.8039,0 -1.1305,-0.629 -1.4454,-1.0331 -0.5479,0.2584 -0.6179,0.7185 -1.3521,0.7185 -0.431,0 -0.559,-0.4601 -0.746,-0.6735 -0.4777,-0.5279 -0.4439,-1.0747 -1.1898,-1.3443 l -0.2773,0.4881 c -0.009,0.0305 -0.0172,0.0616 -0.0247,0.0927 -1.0961,-0.5279 -3.5681,-6.1638 -3.5681,-7.3198 0,-1.1008 0.9571,-0.6184 0.9571,-1.7975 0,-0.6958 -1.0257,-1.2014 -1.0257,-1.7961 0,-0.7524 0.874,-1.1225 1.6315,-1.1225 l -0.5126,-0.18 z"
           style="fill:none;stroke:#011f5b;stroke-width:0.479;stroke-linecap:butt;stroke-linejoin:miter;stroke-miterlimit:3.86360002;stroke-dasharray:none;stroke-opacity:1"
           id="path3101" />
        <path
           inkscape:connector-curvature="0"
           d="m 206.1271,528.1688 c 0,0 1.2126,-0.4667 1.2126,-0.7186 0,-0.3414 -0.7835,-0.718 -1.3058,-1.1676 l -0.6527,0 c 0.2334,0.7635 0,0.4853 0,1.1676 0,0.5121 0.5409,0.7186 0.7459,0.7186"
           style="fill:#011f5b;fill-opacity:1;fill-rule:nonzero;stroke:none"
           id="path3103" />
        <path
           inkscape:connector-curvature="0"
           d="m 206.1271,528.1688 c 0,0 1.2126,-0.4667 1.2126,-0.7186 0,-0.3414 -0.7835,-0.718 -1.3058,-1.1676 l -0.6527,0 c 0.2334,0.7635 0,0.4853 0,1.1676 0,0.5121 0.5409,0.7186 0.7459,0.7186 z"
           style="fill:none;stroke:#011f5b;stroke-width:0.47929999;stroke-linecap:butt;stroke-linejoin:miter;stroke-miterlimit:3.86360002;stroke-dasharray:none;stroke-opacity:1"
           id="path3105" />
        <path
           inkscape:connector-curvature="0"
           d="m 210.5565,530.2358 c 0.6295,0.3028 0.3378,1.0774 1.3518,1.0774 0.8976,0 1.2358,-0.6284 2.0516,-0.6284 0.5479,0 0.9325,0.539 1.6783,0.539 0.6643,0 1.5387,-0.8985 1.3991,-1.9761 0,0 2.3309,0.7635 2.2377,-1.7515 1.8647,0.6285 1.6787,-0.9098 1.8647,-1.6617 0.1869,-0.719 1.3995,-0.1349 1.2125,-1.6615"
           style="fill:none;stroke:#011f5b;stroke-width:0.47929999;stroke-linecap:butt;stroke-linejoin:miter;stroke-miterlimit:3.86360002;stroke-dasharray:none;stroke-opacity:1"
           id="path3107" />
        <path
           inkscape:connector-curvature="0"
           d="m 185.6729,535.97 1.8763,0 c 1.3754,0.3145 1.8768,1.1119 3.2875,1.1119 1.014,0 1.4917,-0.6739 2.2377,-0.6739 0.629,0 1.597,0.7185 2.6574,0.7185 1.0841,0 1.6203,-0.6513 2.3314,-0.9542 0.6295,-0.2695 1.457,-0.2556 2.3314,-0.2556 -0.0237,-0.6286 0,-1.002 0,-1.5299 0,-0.539 0.7223,-0.3256 0.7223,-1.2009 0,-0.9208 -0.9323,-0.7413 -0.9323,-1.1114 l -0.0349,-3.4253 c 0.0464,-0.4262 0.9092,-0.4823 0.9092,-1.1336 0,-0.9657 -0.9607,-0.6313 -0.8976,-1.3921 0.0464,-0.5617 0,-1.7516 0,-1.7516 -1.8536,0 -13.5213,-0.0115 -14.1039,0.0112 0.0353,1.2687 -0.0199,1.0952 0.0232,1.7066 0.0348,0.494 -1.0724,0.7969 -1.0724,1.6282 0,0.5724 0.6647,0.539 0.7227,1.0774 l 0,3.4137 c -0.0348,0.4486 -1.0372,0.6736 -1.0024,1.3137 0.0417,0.7649 0.9328,0.667 0.9328,1.1787 0,0.2245 0.0232,1.0553 0.0116,1.2686"
           style="fill:#ffffff;fill-opacity:1;fill-rule:nonzero;stroke:none"
           id="path3109" />
        <path
           inkscape:connector-curvature="0"
           d="m 185.6729,535.97 1.8763,0 c 1.3754,0.3145 1.8768,1.1119 3.2875,1.1119 1.014,0 1.4917,-0.6739 2.2377,-0.6739 0.629,0 1.597,0.7185 2.6574,0.7185 1.0841,0 1.6203,-0.6513 2.3314,-0.9542 0.6295,-0.2695 1.457,-0.2556 2.3314,-0.2556 -0.0237,-0.6286 0,-1.002 0,-1.5299 0,-0.539 0.7223,-0.3256 0.7223,-1.2009 0,-0.9208 -0.9323,-0.7413 -0.9323,-1.1114 l -0.0349,-3.4253 c 0.0464,-0.4262 0.9092,-0.4823 0.9092,-1.1336 0,-0.9657 -0.9607,-0.6313 -0.8976,-1.3921 0.0464,-0.5617 0,-1.7516 0,-1.7516 -1.8536,0 -13.5213,-0.0115 -14.1039,0.0112 0.0353,1.2687 -0.0199,1.0952 0.0232,1.7066 0.0348,0.494 -1.0724,0.7969 -1.0724,1.6282 0,0.5724 0.6647,0.539 0.7227,1.0774 l 0,3.4137 c -0.0348,0.4486 -1.0372,0.6736 -1.0024,1.3137 0.0417,0.7649 0.9328,0.667 0.9328,1.1787 0,0.2245 0.0232,1.0553 0.0116,1.2686 z"
           style="fill:none;stroke:#011f5b;stroke-width:0.47929999;stroke-linecap:butt;stroke-linejoin:miter;stroke-miterlimit:3.86360002;stroke-dasharray:none;stroke-opacity:1"
           id="path3111" />
        <path
           inkscape:connector-curvature="0"
           d="m 187.1995,535.9139 c 0,0 0.0232,-7.6348 0,-9.4313 0,0 11.1203,-0.0223 11.6096,0.0227 0,2.0322 -0.012,9.4647 -0.012,9.4647"
           style="fill:none;stroke:#011f5b;stroke-width:0.47929999;stroke-linecap:butt;stroke-linejoin:miter;stroke-miterlimit:3.86360002;stroke-dasharray:none;stroke-opacity:1"
           id="path3113" />
        <path
           inkscape:connector-curvature="0"
           d="m 193.0159,536.3857 0,-9.9254"
           style="fill:none;stroke:#011f5b;stroke-width:0.47929999;stroke-linecap:butt;stroke-linejoin:miter;stroke-miterlimit:3.86360002;stroke-dasharray:none;stroke-opacity:1"
           id="path3115" />
        <path
           inkscape:connector-curvature="0"
           d="m 193.1908,527.684 c 0.4899,-0.0227 1.3889,-0.3531 2.2618,-0.6175 1.13,-0.3427 2.3291,-0.1024 3.2164,-0.2806 0.2803,-0.0561 -5.4782,-0.101 -5.4782,-0.101 0.0232,1.1114 0,0.9991 0,0.9991"
           style="fill:#011f5b;fill-opacity:1;fill-rule:nonzero;stroke:none"
           id="path3117" />
        <path
           inkscape:connector-curvature="0"
           d="m 193.1908,527.684 c 0.4899,-0.0227 1.3889,-0.3531 2.2618,-0.6175 1.13,-0.3427 2.3291,-0.1024 3.2164,-0.2806 0.2803,-0.0561 -5.4782,-0.101 -5.4782,-0.101 0.0232,1.1114 0,0.9991 0,0.9991 z"
           style="fill:none;stroke:#011f5b;stroke-width:0.47929999;stroke-linecap:butt;stroke-linejoin:miter;stroke-miterlimit:3.86360002;stroke-dasharray:none;stroke-opacity:1"
           id="path3119" />
        <path
           inkscape:connector-curvature="0"
           d="m 192.3632,526.2131 c 0,0.2481 0.2895,0.4494 0.6471,0.4494 0.3577,0 0.6467,-0.2013 0.6467,-0.4494 0,-0.2478 -0.289,-0.4491 -0.6467,-0.4491 -0.3576,0 -0.6471,0.2013 -0.6471,0.4491"
           style="fill:#011f5b;fill-opacity:1;fill-rule:nonzero;stroke:none"
           id="path3121" />
        <path
           inkscape:connector-curvature="0"
           d="m 192.3632,526.2131 c 0,0.2481 0.2895,0.4494 0.6471,0.4494 0.3577,0 0.6467,-0.2013 0.6467,-0.4494 0,-0.2478 -0.289,-0.4491 -0.6467,-0.4491 -0.3576,0 -0.6471,0.2013 -0.6471,0.4491 z"
           style="fill:none;stroke:#011f5b;stroke-width:0.47929999;stroke-linecap:butt;stroke-linejoin:miter;stroke-miterlimit:3.86360002;stroke-dasharray:none;stroke-opacity:1"
           id="path3123" />
        <path
           inkscape:connector-curvature="0"
           d="m 192.693,527.684 c -0.4893,-0.0227 -1.3883,-0.3531 -2.2608,-0.6175 -1.1309,-0.3427 -2.3296,-0.1024 -3.2174,-0.2806 -0.2797,-0.0561 5.4782,-0.101 5.4782,-0.101 -0.0231,1.1114 0,0.9991 0,0.9991"
           style="fill:#011f5b;fill-opacity:1;fill-rule:nonzero;stroke:none"
           id="path3125" />
        <path
           inkscape:connector-curvature="0"
           d="m 192.693,527.684 c -0.4893,-0.0227 -1.3883,-0.3531 -2.2608,-0.6175 -1.1309,-0.3427 -2.3296,-0.1024 -3.2174,-0.2806 -0.2797,-0.0561 5.4782,-0.101 5.4782,-0.101 -0.0231,1.1114 0,0.9991 0,0.9991 z"
           style="fill:none;stroke:#011f5b;stroke-width:0.47929999;stroke-linecap:butt;stroke-linejoin:miter;stroke-miterlimit:3.86360002;stroke-dasharray:none;stroke-opacity:1"
           id="path3127" />
        <path
           inkscape:connector-curvature="0"
           d="m 223.5226,527.4437 c -1.5382,1.6931 -2.895,3.6808 -3.1288,3.7801 -0.7575,0.3145 -2.5638,3.9071 -7.413,4.1766 -1.2311,0.0687 -5.8685,-0.3817 -6.0275,-1.5683"
           style="fill:none;stroke:#011f5b;stroke-width:0.47929999;stroke-linecap:butt;stroke-linejoin:miter;stroke-miterlimit:3.86360002;stroke-dasharray:none;stroke-opacity:1"
           id="path3141" />
        <path
           inkscape:connector-curvature="0"
           d="m 210.9949,526.1379 c 0.0181,0.116 0.0278,0.2398 0.0278,0.3702 0,0.1925 -1.1364,0.0835 -1.4064,0.1637 -0.1864,0.0562 0.4997,0.3303 0.3804,0.3303 0.6995,0.2694 2.4914,1.0581 1.8652,1.6616 -0.6062,0.584 -0.9676,1.2014 -1.3054,1.5721 -0.4545,0.4939 -0.9912,0.7635 -1.8187,0.7635 -0.7112,0 -1.8634,-1.2335 -2.3412,-1.5708 0.3498,0.3373 1.3619,1.2117 1.3619,1.9303 0,1.6165 -1.2932,3.0202 -1.6314,4.3561"
           style="fill:none;stroke:#011f5b;stroke-width:0.47929999;stroke-linecap:butt;stroke-linejoin:miter;stroke-miterlimit:3.86360002;stroke-dasharray:none;stroke-opacity:1"
           id="path3143" />
        <path
           inkscape:connector-curvature="0"
           d="m 204.0244,523.679 c 1.2817,0 2.0044,0.0894 2.6111,0.404 0.6638,0.3479 1.8648,1.1003 2.1445,1.7515"
           style="fill:none;stroke:#011f5b;stroke-width:0.47929999;stroke-linecap:butt;stroke-linejoin:miter;stroke-miterlimit:3.86360002;stroke-dasharray:none;stroke-opacity:1"
           id="path3145" />
        <path
           inkscape:connector-curvature="0"
           d="m 183.0479,541.2382 68.9918,0 0,-34.4909 c -0.4666,-28.1135 -30.53602,-42.8905 -34.49922,-42.7551 -4.1215,0.141 -34.58588,14.6007 -34.49958,42.9013 0.001,0.5093 0.007,34.3447 0.007,34.3447 z"
           style="fill:none;stroke:#011f5b;stroke-width:0.94999999;stroke-linecap:butt;stroke-linejoin:miter;stroke-miterlimit:3.86360002;stroke-dasharray:none;stroke-opacity:1"
           id="path3147"
           sodipodi:nodetypes="cccccc" />
      </g>
    </g>
    <path
       style="fill:#011f5b;fill-opacity:1;stroke:none;stroke-width:1.45000005;stroke-miterlimit:4;stroke-dasharray:none;stroke-opacity:1"
       d="m 174.08669,580.71843 15.37957,0 0,29.59543 c -5.10257,-3.80278 -12.69694,-12.75158 -15.37957,-18.77754 z"
       id="rect4499"
       inkscape:connector-curvature="0"
       sodipodi:nodetypes="ccccc" />
    <path
       style="fill:#011f5b;fill-opacity:1;stroke:none;stroke-width:1.45000005;stroke-miterlimit:4;stroke-dasharray:none;stroke-opacity:1"
       d="m 192.60404,545.21233 15.37957,0 0,77.7802 -15.37957,-10 z"
       id="rect4509"
       inkscape:connector-curvature="0"
       sodipodi:nodetypes="ccccc" />
    <path
       style="fill:#011f5b;fill-opacity:1;stroke:none;stroke-width:1.45000005;stroke-miterlimit:4;stroke-dasharray:none;stroke-opacity:1"
       d="m 211.1214,560.27083 15.37957,0 0,64.61158 c -5.22747,3.50141 -10.31696,2.21675 -15.37957,0 z"
       id="rect4511"
       inkscape:connector-curvature="0"
       sodipodi:nodetypes="ccccc" />
    <path
       style="fill:#011f5b;fill-opacity:1;stroke:none;stroke-width:1.45000005;stroke-miterlimit:4;stroke-dasharray:none;stroke-opacity:1"
       d="m 229.63877,592.58239 15.37957,0 0,20.22083 -15.37957,10.07937 z"
       id="rect4513"
       inkscape:connector-curvature="0"
       sodipodi:nodetypes="ccccc" />
    <path
       style="fill:#011f5b;fill-opacity:1;stroke:none;stroke-width:1.45000005;stroke-miterlimit:4;stroke-dasharray:none;stroke-opacity:1"
       d="m 248.15612,569.43505 15.37957,0 0,21.83468 c -4.35855,5.84205 -9.5212,14.41805 -15.37957,18.24837 z"
       id="rect4515"
       inkscape:connector-curvature="0"
       sodipodi:nodetypes="ccccc" />
  </g>
</svg>
